<svg width="51" height="30" viewBox="0 0 51 30" fill="none" xmlns="http://www.w3.org/2000/svg">
<path d="M25.7661 1.65641L18.2029 7.782C16.9449 8.79772 16.7027 10.626 17.6559 11.9308C18.6639 13.3216 20.625 13.5951 21.9767 12.5403L29.7352 6.50844C30.2822 6.08652 31.0635 6.18028 31.4932 6.72721C31.9229 7.27414 31.8214 8.05546 31.2744 8.48519L29.6415 9.75094L43.4866 22.5022H46.7525C48.823 22.5022 50.5029 20.8223 50.5029 18.7518V8.75084C50.5029 6.68033 48.823 5.00048 46.7525 5.00048H40.8144H40.5019H40.4472L40.1425 4.80515L34.4701 1.17199C33.2746 0.406289 31.8761 0 30.4541 0C28.7508 0 27.0944 0.585994 25.7661 1.65641ZM27.5475 11.3761L23.5081 14.517C21.0469 16.4391 17.4762 15.939 15.6323 13.4075C13.8978 11.0245 14.3353 7.69605 16.6246 5.84431L23.1252 0.585994C22.2189 0.203145 21.2422 0.00781313 20.2499 0.00781313C18.7811 -1.19337e-07 17.3512 0.437542 16.1246 1.25012L10.499 5.00048H4.24841C2.1779 5.00048 0.498047 6.68033 0.498047 8.75084V18.7518C0.498047 20.8223 2.1779 22.5022 4.24841 22.5022H12.7023L19.8437 29.0184C21.3751 30.417 23.7425 30.3076 25.141 28.7762C25.5708 28.2996 25.8599 27.7449 26.0083 27.1667L27.3366 28.3855C28.8602 29.7841 31.2354 29.6825 32.634 28.159C32.9855 27.7761 33.2434 27.3308 33.4075 26.8698C34.9232 27.8855 36.9859 27.6745 38.2595 26.2838C39.6581 24.7602 39.5565 22.385 38.0329 20.9864L27.5475 11.3761Z" fill="#AB9541"/>
</svg>
