<svg width="35" height="30" viewBox="0 0 35 30" fill="none" xmlns="http://www.w3.org/2000/svg">
<path d="M17.5019 27.8509C26.9685 27.8509 34.6409 21.6179 34.6409 13.9255C34.6409 6.23298 26.9685 0 17.5019 0C8.03525 0 0.362853 6.23298 0.362853 13.9255C0.362853 16.9449 1.54786 19.7367 3.55634 22.0196C3.42913 23.6599 2.79311 25.1194 2.12362 26.2307C1.7554 26.8467 1.38048 27.3421 1.10599 27.6769C0.965397 27.8442 0.858278 27.9714 0.777939 28.0585C0.73777 28.0986 0.71099 28.1321 0.690905 28.1522L0.67082 28.1723C0.362853 28.4802 0.275819 28.9355 0.443192 29.3372C0.610566 29.7389 0.998872 30 1.43404 30C3.35549 30 5.29032 29.4041 6.89711 28.7079C8.43025 28.0384 9.73576 27.2417 10.5325 26.6592C12.6614 27.4291 15.0181 27.8576 17.5019 27.8576V27.8509ZM8.93237 11.7831C9.50056 11.7831 10.0455 12.0088 10.4473 12.4106C10.849 12.8123 11.0747 13.3573 11.0747 13.9255C11.0747 14.4937 10.849 15.0386 10.4473 15.4404C10.0455 15.8421 9.50056 16.0678 8.93237 16.0678C8.36417 16.0678 7.81925 15.8421 7.41748 15.4404C7.0157 15.0386 6.78999 14.4937 6.78999 13.9255C6.78999 13.3573 7.0157 12.8123 7.41748 12.4106C7.81925 12.0088 8.36417 11.7831 8.93237 11.7831ZM17.5019 11.7831C18.0701 11.7831 18.615 12.0088 19.0168 12.4106C19.4185 12.8123 19.6443 13.3573 19.6443 13.9255C19.6443 14.4937 19.4185 15.0386 19.0168 15.4404C18.615 15.8421 18.0701 16.0678 17.5019 16.0678C16.9337 16.0678 16.3888 15.8421 15.987 15.4404C15.5852 15.0386 15.3595 14.4937 15.3595 13.9255C15.3595 13.3573 15.5852 12.8123 15.987 12.4106C16.3888 12.0088 16.9337 11.7831 17.5019 11.7831ZM23.929 13.9255C23.929 13.3573 24.1547 12.8123 24.5565 12.4106C24.9583 12.0088 25.5032 11.7831 26.0714 11.7831C26.6396 11.7831 27.1845 12.0088 27.5863 12.4106C27.9881 12.8123 28.2138 13.3573 28.2138 13.9255C28.2138 14.4937 27.9881 15.0386 27.5863 15.4404C27.1845 15.8421 26.6396 16.0678 26.0714 16.0678C25.5032 16.0678 24.9583 15.8421 24.5565 15.4404C24.1547 15.0386 23.929 14.4937 23.929 13.9255Z" fill="#AB9541"/>
</svg>
