<svg width="31" height="30" viewBox="0 0 31 30" fill="none" xmlns="http://www.w3.org/2000/svg">
<path d="M24.8744 12.1857C24.8744 14.8748 24.0014 17.3588 22.531 19.3741L29.9478 26.7969C30.6801 27.5292 30.6801 28.7184 29.9478 29.4508C29.2155 30.1831 28.0262 30.1831 27.2939 29.4508L19.877 22.028C17.8617 23.5044 15.3777 24.3714 12.6886 24.3714C5.95721 24.3714 0.50293 18.9172 0.50293 12.1857C0.50293 5.45428 5.95721 0 12.6886 0C19.4201 0 24.8744 5.45428 24.8744 12.1857ZM12.6886 20.622C13.7965 20.622 14.8935 20.4038 15.9171 19.9798C16.9406 19.5558 17.8706 18.9344 18.654 18.1511C19.4374 17.3677 20.0588 16.4377 20.4827 15.4141C20.9067 14.3906 21.1249 13.2936 21.1249 12.1857C21.1249 11.0778 20.9067 9.98083 20.4827 8.9573C20.0588 7.93376 19.4374 7.00375 18.654 6.22037C17.8706 5.437 16.9406 4.81558 15.9171 4.39162C14.8935 3.96766 13.7965 3.74945 12.6886 3.74945C11.5808 3.74945 10.4838 3.96766 9.46023 4.39162C8.43669 4.81558 7.50668 5.437 6.7233 6.22037C5.93992 7.00375 5.31851 7.93376 4.89455 8.9573C4.47059 9.98083 4.25238 11.0778 4.25238 12.1857C4.25238 13.2936 4.47059 14.3906 4.89455 15.4141C5.31851 16.4377 5.93992 17.3677 6.7233 18.1511C7.50668 18.9344 8.43669 19.5558 9.46023 19.9798C10.4838 20.4038 11.5808 20.622 12.6886 20.622Z" fill="#AB9541"/>
</svg>
