<svg width="35" height="31" viewBox="0 0 35 31" fill="none" xmlns="http://www.w3.org/2000/svg">
<path d="M24.7917 7.3032C24.7917 10.6262 20.3498 16.5478 18.3993 18.9883C17.9314 19.5726 17.0625 19.5726 16.6007 18.9883C14.6502 16.5478 10.2083 10.6262 10.2083 7.3032C10.2083 3.26818 13.4714 0 17.5 0C21.5286 0 24.7917 3.26818 24.7917 7.3032ZM25.2778 12.1964C25.4905 11.7764 25.6849 11.3565 25.8611 10.9426C25.8915 10.8696 25.9219 10.7905 25.9523 10.7175L33.0009 7.89355C33.9609 7.51013 35 8.2161 35 9.25072V25.7316C35 26.328 34.6354 26.8636 34.0825 27.0888L25.2778 30.6126V12.1964ZM8.36111 8.41694C8.50694 9.27507 8.79861 10.1393 9.13889 10.9426C9.3151 11.3565 9.50955 11.7764 9.72222 12.1964V27.4966L1.99913 30.5943C1.03906 30.9778 0 30.2718 0 29.2372V12.7563C0 12.1598 0.364583 11.6243 0.917535 11.3991L8.36719 8.41694H8.36111ZM19.9184 20.2055C20.763 19.1466 22.0877 17.4242 23.3333 15.5193V30.6917L11.6667 27.3505V15.5193C12.9123 17.4242 14.237 19.1466 15.0816 20.2055C16.3273 21.7635 18.6727 21.7635 19.9184 20.2055ZM17.5 9.25072C18.1446 9.25072 18.7628 8.99424 19.2187 8.53771C19.6745 8.08117 19.9306 7.46197 19.9306 6.81632C19.9306 6.17068 19.6745 5.55148 19.2187 5.09494C18.7628 4.6384 18.1446 4.38192 17.5 4.38192C16.8554 4.38192 16.2372 4.6384 15.7813 5.09494C15.3255 5.55148 15.0694 6.17068 15.0694 6.81632C15.0694 7.46197 15.3255 8.08117 15.7813 8.53771C16.2372 8.99424 16.8554 9.25072 17.5 9.25072Z" fill="#AB9541"/>
</svg>
