<svg width="49" height="32" viewBox="0 0 49 32" fill="none" xmlns="http://www.w3.org/2000/svg">
<path d="M4.1 0.75C2.1125 0.75 0.5 2.3457 0.5 4.3125C0.5 5.4332 1.0325 6.48711 1.94 7.1625L18.26 19.275C19.115 19.9059 20.285 19.9059 21.14 19.275L25.445 16.0836C27.2375 11.6453 31.4225 8.4168 36.4175 7.93438L37.46 7.1625C38.3675 6.48711 38.9 5.4332 38.9 4.3125C38.9 2.3457 37.2875 0.75 35.3 0.75H4.1ZM22.58 21.175C20.87 22.4441 18.53 22.4441 16.82 21.175L0.5 9.0625V24.5C0.5 27.1199 2.6525 29.25 5.3 29.25H27.515C25.6325 26.9937 24.5 24.0918 24.5 20.9375C24.5 20.5219 24.5225 20.1137 24.56 19.7055L22.58 21.175ZM48.5 20.9375C48.5 18.103 47.3621 15.3846 45.3368 13.3803C43.3114 11.376 40.5643 10.25 37.7 10.25C34.8357 10.25 32.0886 11.376 30.0632 13.3803C28.0379 15.3846 26.9 18.103 26.9 20.9375C26.9 23.772 28.0379 26.4904 30.0632 28.4947C32.0886 30.499 34.8357 31.625 37.7 31.625C40.5643 31.625 43.3114 30.499 45.3368 28.4947C47.3621 26.4904 48.5 23.772 48.5 20.9375ZM42.7475 17.7238C43.2125 18.184 43.2125 18.941 42.7475 19.4012L37.3475 24.7449C36.8825 25.2051 36.1175 25.2051 35.6525 24.7449L32.6525 21.7762C32.1875 21.316 32.1875 20.559 32.6525 20.0988C33.1175 19.6387 33.8825 19.6387 34.3475 20.0988L36.5 22.2289L41.0525 17.7238C41.5175 17.2637 42.2825 17.2637 42.7475 17.7238Z" fill="#AB9541"/>
</svg>
