<svg width="23" height="30" viewBox="0 0 23 30" fill="none" xmlns="http://www.w3.org/2000/svg">
<path d="M2.125 0C1.08789 0 0.25 0.837891 0.25 1.875C0.25 2.91211 1.08789 3.75 2.125 3.75V4.39453C2.125 6.87891 3.11523 9.26367 4.87305 11.0215L8.8457 15L4.87305 18.9785C3.11523 20.7363 2.125 23.1211 2.125 25.6055V26.25C1.08789 26.25 0.25 27.0879 0.25 28.125C0.25 29.1621 1.08789 30 2.125 30H4H19H20.875C21.9121 30 22.75 29.1621 22.75 28.125C22.75 27.0879 21.9121 26.25 20.875 26.25V25.6055C20.875 23.1211 19.8848 20.7363 18.127 18.9785L14.1543 15L18.1328 11.0215C19.8906 9.26367 20.8809 6.87891 20.8809 4.39453V3.75C21.918 3.75 22.7559 2.91211 22.7559 1.875C22.7559 0.837891 21.918 0 20.8809 0H19H4H2.125ZM17.125 25.6055V26.25H5.875V25.6055C5.875 24.1113 6.4668 22.6816 7.52148 21.627L11.5 17.6543L15.4785 21.6328C16.5332 22.6875 17.125 24.1172 17.125 25.6113V25.6055Z" fill="#AB9541"/>
</svg>
