<svg width="35" height="35" viewBox="0 0 35 35" fill="none" xmlns="http://www.w3.org/2000/svg">
<path d="M18.5938 0H24.0625C24.6641 0 25.1563 0.492187 25.1563 1.09375V5.46875C25.1563 6.07031 24.6641 6.5625 24.0625 6.5625H18.5938V8.75H31.7188C32.9287 8.75 33.9063 9.72754 33.9063 10.9375C33.9063 12.1475 32.9287 13.125 31.7188 13.125H3.28127C2.07131 13.125 1.09377 12.1475 1.09377 10.9375C1.09377 9.72754 2.07131 8.75 3.28127 8.75H16.4063V1.09375C16.4063 0.492187 16.8985 0 17.5 0H18.5938ZM4.37502 15.3125H8.75002V28.4375H11.4844V15.3125H15.8594V28.4375H19.1407V15.3125H23.5157V28.4375H26.25V15.3125H30.625V28.7314C30.666 28.752 30.7071 28.7793 30.7481 28.8066L34.0293 30.9941C34.8291 31.5273 35.1914 32.5254 34.9112 33.4482C34.6309 34.3711 33.7764 35 32.8125 35H2.18752C1.22366 35 0.375999 34.3711 0.0957259 33.4482C-0.184548 32.5254 0.170921 31.5273 0.977562 30.9941L4.25881 28.8066C4.29983 28.7793 4.34084 28.7588 4.38186 28.7314V15.3125H4.37502Z" fill="#AB9541"/>
</svg>
