<svg width="35" height="30" viewBox="0 0 35 30" fill="none" xmlns="http://www.w3.org/2000/svg">
<path d="M15.1297 5.97321L18.5114 4.28571H30.3574V10.7143H22.6699C21.2034 9.70312 19.4222 9.10714 17.5003 9.10714C15.5784 9.10714 13.8039 9.70312 12.3306 10.7143H4.64314V6.42857H13.2146C13.8775 6.42857 14.5338 6.27455 15.1297 5.97321ZM0.357422 6.42857V25.7143C0.357422 28.0781 2.2793 30 4.64314 30H30.3574C32.7213 30 34.6431 28.0781 34.6431 25.7143V4.28571C34.6431 1.92187 32.7213 0 30.3574 0H18.5114C17.8485 0 17.1922 0.154018 16.5963 0.455357L13.2146 2.14286H11.0717V1.07143C11.0717 0.482143 10.5896 0 10.0003 0H5.71456C5.12528 0 4.64314 0.482143 4.64314 1.07143V2.14286C2.2793 2.14286 0.357422 4.06473 0.357422 6.42857ZM11.6074 18.2143C11.6074 16.6514 12.2283 15.1525 13.3334 14.0474C14.4385 12.9423 15.9374 12.3214 17.5003 12.3214C19.0632 12.3214 20.562 12.9423 21.6672 14.0474C22.7723 15.1525 23.3931 16.6514 23.3931 18.2143C23.3931 19.7772 22.7723 21.276 21.6672 22.3812C20.562 23.4863 19.0632 24.1071 17.5003 24.1071C15.9374 24.1071 14.4385 23.4863 13.3334 22.3812C12.2283 21.276 11.6074 19.7772 11.6074 18.2143Z" fill="#AB9541"/>
</svg>
